# xmcd
#
# Track frame offsets: 
#        150
#        18415
#        36432
#        55238
#        67665
#        86539
#        102251
#        121058
#        138361
#        156184
#        171715
#        187878
#
# Disc length: 2756 seconds
#
# Revision: 2
# Processed by: cddbd v1.5.2PL0 Copyright (c) Steve Scherf et al.
# Submitted via: ExactAudioCopy v0.99pb5
#
DISCID=9a0ac20c
DTITLE=The Blues Band - Stepping Out
DYEAR=2002
DGENRE=Blues
TTITLE0=Half The Man(Twice The Fool)
TTITLE1=On The Street
TTITLE2=I Am The Blues
TTITLE3=Last Chance To Dance
TTITLE4=Bus To Nowhere
TTITLE5=I'll Be Home Again Tonight
TTITLE6=Mr Estes Said
TTITLE7=Wait A Minute
TTITLE8=The Other Side
TTITLE9=There Shoes
TTITLE10=Stepping Out On Main
TTITLE11=Resting On Jesus
EXTD=YEAR: 2002
EXTT0=
EXTT1=
EXTT2=
EXTT3=
EXTT4=
EXTT5=
EXTT6=
EXTT7=
EXTT8=
EXTT9=
EXTT10=
EXTT11=
PLAYORDER=
